<svg width="160" height="32" viewBox="0 0 160 32" fill="none" xmlns="http://www.w3.org/2000/svg">
<g clip-path="url(#clip0_0_1)">
<circle cx="16" cy="16" r="16" fill="#4640DE"/>
<mask id="path-2-inside-1_0_1" fill="white">
<path d="M16 27C18.6652 27 21.3304 24.8953 23.0607 23.179C23.4599 22.7831 22.9792 22.2122 22.4822 22.4749C20.6013 23.469 18.0181 24.6 16 24.6C13.9819 24.6 11.3987 23.469 9.5178 22.4749C9.02076 22.2122 8.54012 22.7831 8.93926 23.179C10.6696 24.8953 13.3348 27 16 27Z"/>
</mask>
<path d="M23.0607 23.179L25.1734 25.3089V25.3089L23.0607 23.179ZM8.93926 23.179L6.82658 25.3089H6.82658L8.93926 23.179ZM9.5178 22.4749L10.9197 19.8226L10.9197 19.8226L9.5178 22.4749ZM22.4822 22.4749L21.0803 19.8226L21.0803 19.8226L22.4822 22.4749ZM20.948 21.0491C20.1783 21.8126 19.2652 22.5953 18.3201 23.1712C17.3491 23.7627 16.5672 24 16 24V30C18.098 30 19.9813 29.1849 21.4419 28.2951C22.9282 27.3895 24.2129 26.2616 25.1734 25.3089L20.948 21.0491ZM16 24C15.4328 24 14.6509 23.7627 13.6799 23.1712C12.7348 22.5953 11.8217 21.8126 11.052 21.0491L6.82658 25.3089C7.78708 26.2616 9.07177 27.3895 10.5581 28.2951C12.0187 29.1849 13.902 30 16 30V24ZM8.11593 25.1272C9.1314 25.6639 10.3827 26.2629 11.6934 26.7336C12.967 27.1911 14.4921 27.6 16 27.6V21.6C15.4899 21.6 14.7143 21.4434 13.7216 21.0868C12.7658 20.7436 11.7851 20.28 10.9197 19.8226L8.11593 25.1272ZM16 27.6C17.5079 27.6 19.033 27.1911 20.3066 26.7336C21.6173 26.2629 22.8686 25.6639 23.8841 25.1272L21.0803 19.8226C20.2149 20.28 19.2342 20.7436 18.2785 21.0868C17.2857 21.4434 16.5101 21.6 16 21.6V27.6ZM25.1734 25.3089C25.7674 24.7197 26.1776 23.8995 26.2071 22.9593C26.2356 22.0551 25.905 21.2526 25.4152 20.663C24.4114 19.4547 22.6321 19.0024 21.0803 19.8226L23.8841 25.1272C22.8293 25.6847 21.5389 25.3865 20.7999 24.4969C20.4425 24.0667 20.1883 23.4648 20.2101 22.7708C20.2331 22.0407 20.5536 21.4403 20.948 21.0491L25.1734 25.3089ZM11.052 21.0491C11.4464 21.4403 11.7669 22.0407 11.7899 22.7708C11.8117 23.4648 11.5575 24.0667 11.2001 24.4969C10.4611 25.3865 9.17068 25.6847 8.11593 25.1272L10.9197 19.8226C9.36787 19.0024 7.5886 19.4547 6.58483 20.663C6.09504 21.2526 5.76443 22.0551 5.79286 22.9593C5.82241 23.8995 6.23259 24.7197 6.82658 25.3089L11.052 21.0491Z" fill="white" mask="url(#path-2-inside-1_0_1)"/>
<path d="M21.7113 9.31575C21.3913 8.99365 21.3913 8.47732 21.7113 8.15521L23.4297 6.02632L23.4297 5.98937C23.865 5.55866 24.5708 5.55866 25.0062 5.98937C25.4415 6.42007 25.4415 7.11837 25.0062 7.54907L22.9814 9.31575L22.9058 9.38279C22.7477 9.50768 22.5506 9.57665 22.3463 9.57665C22.108 9.57665 21.8795 9.48277 21.7113 9.31575ZM8.66602 15.185C8.66602 13.2892 9.42721 11.4711 10.7822 10.1306C12.1371 8.79004 13.9748 8.03694 15.891 8.03694C19.8812 8.03694 23.1159 11.2372 23.1159 15.185C23.1159 19.1327 19.8812 22.333 15.891 22.333C11.9007 22.333 8.66602 19.1327 8.66602 15.185Z" fill="white"/>
</g>
<path d="M47.2 25.24C45.52 25.24 44.096 24.816 42.928 23.968C41.76 23.12 40.92 21.904 40.408 20.32L43.624 19.096C43.976 20.12 44.44 20.872 45.016 21.352C45.608 21.832 46.336 22.072 47.2 22.072C48.24 22.072 49.072 21.736 49.696 21.064C50.336 20.392 50.656 19.496 50.656 18.376V8.2H54.136V18.472C54.136 19.832 53.848 21.024 53.272 22.048C52.696 23.056 51.888 23.84 50.848 24.4C49.808 24.96 48.592 25.24 47.2 25.24ZM62.527 25.24C61.279 25.24 60.151 24.952 59.143 24.376C58.135 23.8 57.335 23.024 56.743 22.048C56.151 21.072 55.855 19.976 55.855 18.76C55.855 17.544 56.143 16.448 56.719 15.472C57.311 14.48 58.111 13.696 59.119 13.12C60.143 12.544 61.279 12.256 62.527 12.256C63.775 12.256 64.903 12.544 65.911 13.12C66.935 13.696 67.735 14.48 68.311 15.472C68.903 16.448 69.199 17.544 69.199 18.76C69.199 19.976 68.903 21.072 68.311 22.048C67.735 23.024 66.943 23.8 65.935 24.376C64.927 24.952 63.791 25.24 62.527 25.24ZM62.527 22.384C63.183 22.384 63.767 22.224 64.279 21.904C64.807 21.584 65.223 21.152 65.527 20.608C65.847 20.048 66.007 19.432 66.007 18.76C66.007 18.072 65.847 17.456 65.527 16.912C65.223 16.368 64.807 15.936 64.279 15.616C63.767 15.28 63.183 15.112 62.527 15.112C61.887 15.112 61.303 15.28 60.775 15.616C60.247 15.936 59.831 16.368 59.527 16.912C59.223 17.456 59.071 18.072 59.071 18.76C59.071 19.432 59.223 20.048 59.527 20.608C59.831 21.152 60.247 21.584 60.775 21.904C61.303 22.224 61.887 22.384 62.527 22.384ZM70.9801 25V8.2L74.2681 7.648V13.504C75.2601 12.72 76.4281 12.328 77.7721 12.328C78.9561 12.328 80.0281 12.616 80.9881 13.192C81.9481 13.768 82.7081 14.544 83.2681 15.52C83.8441 16.48 84.1321 17.56 84.1321 18.76C84.1321 19.96 83.8441 21.048 83.2681 22.024C82.6921 22.984 81.9161 23.752 80.9401 24.328C79.9641 24.888 78.8761 25.168 77.6761 25.168C77.0521 25.168 76.4441 25.08 75.8521 24.904C75.2601 24.728 74.7161 24.472 74.2201 24.136V25H70.9801ZM77.2441 22.384C77.9321 22.384 78.5481 22.224 79.0921 21.904C79.6521 21.584 80.0921 21.152 80.4121 20.608C80.7321 20.064 80.8921 19.448 80.8921 18.76C80.8921 18.072 80.7321 17.456 80.4121 16.912C80.0921 16.352 79.6521 15.92 79.0921 15.616C78.5481 15.296 77.9321 15.136 77.2441 15.136C76.6361 15.136 76.0761 15.24 75.5641 15.448C75.0681 15.64 74.6361 15.936 74.2681 16.336V21.208C74.6201 21.576 75.0521 21.864 75.5641 22.072C76.0921 22.28 76.6521 22.384 77.2441 22.384ZM86.0967 25V8.2H89.5767V14.968H97.3047V8.2H100.785V25H97.3047V18.112H89.5767V25H86.0967ZM108.231 25.24C107.271 25.24 106.415 25.032 105.663 24.616C104.927 24.184 104.343 23.592 103.911 22.84C103.495 22.088 103.287 21.224 103.287 20.248V12.496H106.575V19.768C106.575 20.568 106.807 21.208 107.271 21.688C107.751 22.168 108.391 22.408 109.191 22.408C109.735 22.408 110.223 22.304 110.655 22.096C111.103 21.872 111.471 21.56 111.759 21.16V12.496H115.047V25H111.759V23.992C110.799 24.824 109.623 25.24 108.231 25.24ZM117.369 25V12.496H120.657V13.528C121.601 12.68 122.769 12.256 124.161 12.256C125.137 12.256 125.993 12.472 126.729 12.904C127.481 13.32 128.065 13.904 128.481 14.656C128.897 15.392 129.105 16.256 129.105 17.248V25H125.817V17.728C125.817 16.912 125.585 16.272 125.121 15.808C124.657 15.328 124.025 15.088 123.225 15.088C122.665 15.088 122.169 15.2 121.737 15.424C121.305 15.632 120.945 15.936 120.657 16.336V25H117.369ZM136.932 25.192C135.54 25.192 134.484 24.88 133.764 24.256C133.06 23.616 132.708 22.688 132.708 21.472V15.232H130.14V12.496H132.708V9.304L135.996 8.56V12.496H139.572V15.232H135.996V20.8C135.996 21.376 136.124 21.792 136.38 22.048C136.636 22.288 137.084 22.408 137.724 22.408C138.044 22.408 138.332 22.392 138.588 22.36C138.86 22.312 139.156 22.232 139.476 22.12V24.832C139.14 24.944 138.716 25.032 138.204 25.096C137.708 25.16 137.284 25.192 136.932 25.192ZM140.936 25V8.2L144.224 7.648V25H140.936ZM147.78 30.16C147.492 30.16 147.212 30.144 146.94 30.112C146.684 30.096 146.468 30.072 146.292 30.04V27.208C146.612 27.272 146.996 27.304 147.444 27.304C148.644 27.304 149.476 26.736 149.94 25.6L150.132 25.12L145.26 12.496H148.884L152.004 21.016L155.532 12.496H159.084L153.324 26.008C152.892 27.016 152.42 27.824 151.908 28.432C151.396 29.04 150.804 29.48 150.132 29.752C149.476 30.024 148.692 30.16 147.78 30.16Z" fill="white"/>
<defs>
<clipPath id="clip0_0_1">
<rect width="32" height="32" fill="white"/>
</clipPath>
</defs>
</svg>
