<svg width="25" height="25" viewBox="0 0 25 25" fill="none" xmlns="http://www.w3.org/2000/svg">
<path d="M9.50391 5.0163L7.50391 5.01498C6.97347 5.01464 6.46463 5.22502 6.08931 5.59984C5.71399 5.97467 5.50294 6.48324 5.50259 7.01367L5.49472 19.0137C5.49437 19.5441 5.70475 20.0529 6.07958 20.4283C6.4544 20.8036 6.96297 21.0146 7.49341 21.015L17.4934 21.0215C18.0238 21.0219 18.5327 20.8115 18.908 20.4367C19.2833 20.0619 19.4944 19.5533 19.4947 19.0229L19.5026 7.02286C19.5029 6.49243 19.2926 5.98358 18.9177 5.60826C18.5429 5.23294 18.0343 5.0219 17.5039 5.02155L15.5039 5.02023" stroke="#7C8493" stroke-width="2" stroke-linecap="round" stroke-linejoin="round"/>
<path d="M13.5054 3.01874L11.5054 3.01743C10.4008 3.0167 9.50478 3.91154 9.50406 5.01611C9.50333 6.12068 10.3982 7.0167 11.5027 7.01743L13.5027 7.01874C14.6073 7.01946 15.5033 6.12462 15.5041 5.02005C15.5048 3.91548 14.6099 3.01946 13.5054 3.01874Z" stroke="#7C8493" stroke-width="2" stroke-linecap="round" stroke-linejoin="round"/>
<path d="M9.49951 12.0161L9.50951 12.0161" stroke="#7C8493" stroke-width="2" stroke-linecap="round" stroke-linejoin="round"/>
<path d="M13.4995 12.0186L15.4995 12.0199" stroke="#7C8493" stroke-width="2" stroke-linecap="round" stroke-linejoin="round"/>
<path d="M9.49658 16.0161L9.50658 16.0161" stroke="#7C8493" stroke-width="2" stroke-linecap="round" stroke-linejoin="round"/>
<path d="M13.4966 16.0186L15.4966 16.0199" stroke="#7C8493" stroke-width="2" stroke-linecap="round" stroke-linejoin="round"/>
</svg>
